# xmcd
#
# Track frame offsets:
#	180
#	13478
#	24428
#	38145
#	52042
#	63306
#	75143
#	87137
#	98177
#	110706
#	122674
#	136238
#	148171
#	159995
#	175525
#
# Disc length: 2533 seconds
#
# Revision: 3
# Processed by: cddbd v1.5.1PL0 Copyright (c) Steve Scherf et al.
# Submitted via: audiograbber 1.83.01
#
DISCID=bd09e30f
DTITLE=Conway Twitty - Hello Darlin' - 15 #1 Hits
DYEAR=2003
DGENRE=Country
TTITLE0=Conway Twitty - After All The Good Is Gone
TTITLE1=Conway Twitty - As Soon As I Hang Up The Phone
TTITLE2=Conway Twitty - Baby's Gone
TTITLE3=Conway Twitty - Fifteen Years Ago
TTITLE4=Conway Twitty - Hello Darlin'
TTITLE5=Conway Twitty - I Can´t See Me Without You
TTITLE6=Conway Twitty - I'm Not Through Loving You Yet
TTITLE7=Conway Twitty - It's Only Make Believe
TTITLE8=Conway Twitty - This Time I've Hurt Her More Than She Loves Me
TTITLE9=Conway Twitty - (Lying Here With) Linda On My Mind
TTITLE10=Conway Twitty - The Game That Daddies Play
TTITLE11=Conway Twitty - She Needs Someone To Hold Her (When She Cries)
TTITLE12=Conway Twitty - To See An Angel Cry
TTITLE13=Conway Twitty - Touch The Hand
TTITLE14=Conway Twitty - You've Never Been This Far Before
EXTD=
EXTT0=
EXTT1=
EXTT2=
EXTT3=
EXTT4=
EXTT5=
EXTT6=
EXTT7=
EXTT8=
EXTT9=
EXTT10=
EXTT11=
EXTT12=
EXTT13=
EXTT14=
PLAYORDER=
